HIERARCHY
ROOT root     
{
	OFFSET 0.0000 0.0000 0.0000
	CHANNELS 6 Xposition Yposition Zposition Zrotation Yrotation Xrotation
	JOINT pelvis   
	{
		OFFSET 0.0000 0.0000 0.0000
		CHANNELS 3 Zrotation Yrotation Xrotation
		JOINT thorax   
		{
			OFFSET 0.0000 23.0750 -5.0000
			CHANNELS 3 Zrotation Yrotation Xrotation
			JOINT rclavicle
			{
				OFFSET 0.0000 28.0009 0.0000
				CHANNELS 3 Zrotation Yrotation Xrotation
				JOINT rhumerus 
				{
					OFFSET -18.5725 5.5939 0.0000
					CHANNELS 3 Zrotation Yrotation Xrotation
					JOINT rradius  
					{
						OFFSET -24.8459 0.0000 0.0000
						CHANNELS 3 Zrotation Yrotation Xrotation
						JOINT rhand    
						{
							OFFSET -24.5477 0.0000 0.0000
							CHANNELS 3 Zrotation Yrotation Xrotation
							End Site
							{
								OFFSET -8.1826 0.0000 0.0000
							}
						}
					}
				}
			}
			JOINT lclavicle
			{
				OFFSET 0.0000 28.0009 0.0000
				CHANNELS 3 Zrotation Yrotation Xrotation
				JOINT lhumerus 
				{
					OFFSET 18.5725 5.5939 0.0000
					CHANNELS 3 Zrotation Yrotation Xrotation
					JOINT lradius  
					{
						OFFSET 24.8459 0.0000 0.0000
						CHANNELS 3 Zrotation Yrotation Xrotation
						JOINT lhand    
						{
							OFFSET 24.5477 0.0000 0.0000
							CHANNELS 3 Zrotation Yrotation Xrotation
							End Site
							{
								OFFSET 8.1826 0.0000 0.0000
							}
						}
					}
				}
			}
			JOINT head     
			{
				OFFSET 0.0000 35.2030 0.0000
				CHANNELS 3 Zrotation Yrotation Xrotation
				End Site
				{
					OFFSET 0.0000 11.7343 0.0000
				}
			}
		}
		JOINT rfemur   
		{
			OFFSET -8.2817 0.0000 0.0000
			CHANNELS 3 Zrotation Yrotation Xrotation
			JOINT rtibia   
			{
				OFFSET 0.0000 -43.3627 0.0000
				CHANNELS 3 Zrotation Yrotation Xrotation
				JOINT rfoot    
				{
					OFFSET 0.0000 -38.2947 0.0000
					CHANNELS 3 Zrotation Yrotation Xrotation
					JOINT rtoes    
					{
						OFFSET 0.0000 0.0000 16.6054
						CHANNELS 3 Zrotation Yrotation Xrotation
						End Site
						{
							OFFSET 0.0000 0.0000 5.5351
						}
					}
				}
			}
		}
		JOINT lfemur   
		{
			OFFSET 8.2817 0.0000 0.0000
			CHANNELS 3 Zrotation Yrotation Xrotation
			JOINT ltibia   
			{
				OFFSET 0.0000 -43.3627 0.0000
				CHANNELS 3 Zrotation Yrotation Xrotation
				JOINT lfoot    
				{
					OFFSET 0.0000 -38.2947 0.0000
					CHANNELS 3 Zrotation Yrotation Xrotation
					JOINT ltoes    
					{
						OFFSET 0.0000 0.0000 16.6054
						CHANNELS 3 Zrotation Yrotation Xrotation
						End Site
						{
							OFFSET 0.0000 0.0000 5.5351
						}
					}
				}
			}
		}
	}
}
MOTION
Frames: 7
Frame Time: .0333333
-53.025 82.223 -0.5027 74.7546 85.2293 96.3777 0 -0 0 3.23668 -2.54537 20.5551 18.4574 -5.52382 -4.77565e-06 52.9344 4.32626 6.58865 -2.32077e-06 83.8939 -2.58253e-06 -4.8877 -1.41189 0.0603012 -15.8961 11.2449 -2.8497e-05 -52.2044 19.2102 24.8146 0 -59.2655 0 -6.10927 7.37816 -0.394298 2.53809 -6.58526 -2.01179 5.10052 -11.7573 -40.3929 -0 -0 53.2518 8.33225e-06 4.56859 -8.42621 -0.670912 1.88652e-06 -31.0344 -9.25711 12.1177 -50.8999 -0 -0 59.9465 7.76463e-06 12.873 -4.89411 -1.11698 1.00405e-06 -20.8941 
-52.426 82.294 -0.4506 72.0095 85.1845 93.6873 0 -0 0 3.15589 -2.21613 20.5457 18.3003 -5.49796 2.13572e-06 52.8051 4.58767 6.61588 0 84.5944 0 -4.8974 -1.41475 0.060502 -16.0022 11.4343 -2.75444e-06 -52.1875 19.6743 24.7574 0 -59.2454 0 -6.17538 7.38235 -0.398805 2.34001 -6.63751 -2.11554 5.03774 -11.8663 -39.9764 -0 -0 53.1295 -4.13153e-06 4.94149 -8.31311 -0.716204 -7.1025e-06 -32.0464 -9.71081 12.0729 -51.6641 -0 -0 58.4994 -4.76011e-06 12.7673 -4.7539 -1.0758 6.6085e-07 -21.2392 
-51.816 82.357 -0.3975 69.291 85.139 91.0187 0 -0 0 3.07803 -1.89564 20.5287 18.1527 -5.47648 3.01637e-05 52.6809 4.8382 6.63322 -3.04158e-06 85.2746 -3.30323e-06 -4.89923 -1.41543 0.0606019 -16.1027 11.6256 0.000105773 -52.1799 20.1307 24.6778 0 -59.2342 0 -6.2326 7.38869 -0.402808 2.14961 -6.69602 -2.23994 4.97901 -11.9661 -39.5368 -0 -0 52.9962 -3.04189e-06 5.29911 -8.22266 -0.759989 2.96425e-06 -32.9843 -10.1576 12.0318 -52.3754 -0 -0 56.9728 4.28387e-06 12.6491 -4.6195 -1.03549 3.25211e-07 -21.6122 
-51.194 82.412 -0.3431 66.5659 85.0968 88.3401 0 -0 0 3.00371 -1.5837 20.5022 18.0179 -5.46174 -3.46506e-05 52.5585 5.08007 6.64649 -3.55312e-06 85.9297 -3.81471e-06 -4.89398 -1.41567 0.0604996 -16.2019 11.8225 -0.000104907 -52.177 20.5792 24.5842 0 -59.237 0 -6.28044 7.3986 -0.406506 1.96846 -6.76117 -2.38239 4.92392 -12.0532 -39.0768 -0 -0 52.8499 3.15968e-07 5.63847 -8.14135 -0.801002 -2.5052e-06 -33.9685 -10.5961 11.9959 -53.0334 -0 -0 55.3688 2.41542e-05 12.5134 -4.48458 -0.994208 -8.88085e-08 -22.0818 
-50.561 82.459 -0.2874 63.8078 85.0562 85.6244 0 -0 0 2.93313 -1.27779 20.4646 17.8959 -5.44908 -2.74498e-05 52.4352 5.30535 6.65285 -4.86043e-06 86.5693 -5.38072e-06 -4.87797 -1.4174 0.0603993 -16.2949 12.0228 1.23631e-05 -52.1814 21.0133 24.4822 0 -59.2443 0 -6.31778 7.40444 -0.409204 1.79906 -6.83351 -2.54069 4.87175 -12.1243 -38.5932 -0 -0 52.6926 4.15512e-06 5.963 -8.08765 -0.841903 4.62686e-06 -34.802 -11.0212 11.9632 -53.6379 -0 -0 53.6903 8.28413e-06 12.3571 -4.3568 -0.953496 3.13316e-06 -22.4784 
-49.916 82.497 -0.2304 61.0055 85.0137 82.8637 0 -0 0 2.86677 -0.978694 20.4159 17.7867 -5.44235 3.27987e-05 52.3112 5.51795 6.65858 2.22351e-06 87.1888 2.11677e-06 -4.85318 -1.42108 0.0601984 -16.3853 12.2303 -2.87038e-05 -52.1905 21.435 24.3719 0 -59.2618 0 -6.34918 7.41027 -0.411608 1.64125 -6.91242 -2.71317 4.82319 -12.1778 -38.0937 -0 -0 52.5268 -1.04027e-05 6.27099 -8.04245 -0.880796 1.37819e-06 -35.6533 -11.4308 11.934 -54.1909 -0 -0 51.9488 -1.31872e-05 12.1755 -4.21209 -0.90791 1.52372e-06 -22.8913 
-49.259 82.526 -0.1722 58.1545 84.9674 80.0531 0 -0 0 2.80429 -0.685314 20.3563 17.6937 -5.43784 1.2536e-05 52.1838 5.71143 6.66015 -1.08064e-05 87.7628 -1.12335e-05 -4.81698 -1.42716 0.059998 -16.47 12.4424 1.72994e-05 -52.2068 21.8398 24.2569 0 -59.2803 0 -6.37706 7.41112 -0.413406 1.49698 -6.99773 -2.89906 4.77656 -12.211 -37.5779 -0 -0 52.3556 4.35917e-06 6.56791 -8.01761 -0.919989 1.82327e-06 -36.376 -11.8212 11.9054 -54.6994 -0 -0 50.1594 2.04528e-05 11.9651 -4.04059 -0.855605 -8.06713e-06 -23.2209 
